<svg xmlns="http://www.w3.org/2000/svg" style="position: absolute; width: 0; height: 0; overflow: hidden;" aria-hidden="true" astro-icon-spritesheet="">
    <symbol viewBox="0 0 256 228" id="astroicon:logos/react-logomark"><path fill="#00D8FF" d="M210.483 73.824a171.49 171.49 0 0 0-8.24-2.597c.465-1.9.893-3.777 1.273-5.621 6.238-30.281 2.16-54.676-11.769-62.708-13.355-7.7-35.196.329-57.254 19.526a171.23 171.23 0 0 0-6.375 5.848 155.866 155.866 0 0 0-4.241-3.917C100.759 3.829 77.587-4.822 63.673 3.233 50.33 10.957 46.379 33.89 51.995 62.588a170.974 170.974 0 0 0 1.892 8.48c-3.28.932-6.445 1.924-9.474 2.98C17.309 83.498 0 98.307 0 113.668c0 15.865 18.582 31.778 46.812 41.427a145.52 145.52 0 0 0 6.921 2.165 167.467 167.467 0 0 0-2.01 9.138c-5.354 28.2-1.173 50.591 12.134 58.266 13.744 7.926 36.812-.22 59.273-19.855a145.567 145.567 0 0 0 5.342-4.923 168.064 168.064 0 0 0 6.92 6.314c21.758 18.722 43.246 26.282 56.54 18.586 13.731-7.949 18.194-32.003 12.4-61.268a145.016 145.016 0 0 0-1.535-6.842c1.62-.48 3.21-.974 4.76-1.488 29.348-9.723 48.443-25.443 48.443-41.52 0-15.417-17.868-30.326-45.517-39.844Zm-6.365 70.984c-1.4.463-2.836.91-4.3 1.345-3.24-10.257-7.612-21.163-12.963-32.432 5.106-11 9.31-21.767 12.459-31.957 2.619.758 5.16 1.557 7.61 2.4 23.69 8.156 38.14 20.213 38.14 29.504 0 9.896-15.606 22.743-40.946 31.14Zm-10.514 20.834c2.562 12.94 2.927 24.64 1.23 33.787-1.524 8.219-4.59 13.698-8.382 15.893-8.067 4.67-25.32-1.4-43.927-17.412a156.726 156.726 0 0 1-6.437-5.87c7.214-7.889 14.423-17.06 21.459-27.246 12.376-1.098 24.068-2.894 34.671-5.345a134.17 134.17 0 0 1 1.386 6.193ZM87.276 214.515c-7.882 2.783-14.16 2.863-17.955.675-8.075-4.657-11.432-22.636-6.853-46.752a156.923 156.923 0 0 1 1.869-8.499c10.486 2.32 22.093 3.988 34.498 4.994 7.084 9.967 14.501 19.128 21.976 27.15a134.668 134.668 0 0 1-4.877 4.492c-9.933 8.682-19.886 14.842-28.658 17.94ZM50.35 144.747c-12.483-4.267-22.792-9.812-29.858-15.863-6.35-5.437-9.555-10.836-9.555-15.216 0-9.322 13.897-21.212 37.076-29.293 2.813-.98 5.757-1.905 8.812-2.773 3.204 10.42 7.406 21.315 12.477 32.332-5.137 11.18-9.399 22.249-12.634 32.792a134.718 134.718 0 0 1-6.318-1.979Zm12.378-84.26c-4.811-24.587-1.616-43.134 6.425-47.789 8.564-4.958 27.502 2.111 47.463 19.835a144.318 144.318 0 0 1 3.841 3.545c-7.438 7.987-14.787 17.08-21.808 26.988-12.04 1.116-23.565 2.908-34.161 5.309a160.342 160.342 0 0 1-1.76-7.887Zm110.427 27.268a347.8 347.8 0 0 0-7.785-12.803c8.168 1.033 15.994 2.404 23.343 4.08-2.206 7.072-4.956 14.465-8.193 22.045a381.151 381.151 0 0 0-7.365-13.322Zm-45.032-43.861c5.044 5.465 10.096 11.566 15.065 18.186a322.04 322.04 0 0 0-30.257-.006c4.974-6.559 10.069-12.652 15.192-18.18ZM82.802 87.83a323.167 323.167 0 0 0-7.227 13.238c-3.184-7.553-5.909-14.98-8.134-22.152 7.304-1.634 15.093-2.97 23.209-3.984a321.524 321.524 0 0 0-7.848 12.897Zm8.081 65.352c-8.385-.936-16.291-2.203-23.593-3.793 2.26-7.3 5.045-14.885 8.298-22.6a321.187 321.187 0 0 0 7.257 13.246c2.594 4.48 5.28 8.868 8.038 13.147Zm37.542 31.03c-5.184-5.592-10.354-11.779-15.403-18.433 4.902.192 9.899.29 14.978.29 5.218 0 10.376-.117 15.453-.343-4.985 6.774-10.018 12.97-15.028 18.486Zm52.198-57.817c3.422 7.8 6.306 15.345 8.596 22.52-7.422 1.694-15.436 3.058-23.88 4.071a382.417 382.417 0 0 0 7.859-13.026 347.403 347.403 0 0 0 7.425-13.565Zm-16.898 8.101a358.557 358.557 0 0 1-12.281 19.815 329.4 329.4 0 0 1-23.444.823c-7.967 0-15.716-.248-23.178-.732a310.202 310.202 0 0 1-12.513-19.846h.001a307.41 307.41 0 0 1-10.923-20.627 310.278 310.278 0 0 1 10.89-20.637l-.001.001a307.318 307.318 0 0 1 12.413-19.761c7.613-.576 15.42-.876 23.31-.876H128c7.926 0 15.743.303 23.354.883a329.357 329.357 0 0 1 12.335 19.695 358.489 358.489 0 0 1 11.036 20.54 329.472 329.472 0 0 1-11 20.722Zm22.56-122.124c8.572 4.944 11.906 24.881 6.52 51.026-.344 1.668-.73 3.367-1.15 5.09-10.622-2.452-22.155-4.275-34.23-5.408-7.034-10.017-14.323-19.124-21.64-27.008a160.789 160.789 0 0 1 5.888-5.4c18.9-16.447 36.564-22.941 44.612-18.3ZM128 90.808c12.625 0 22.86 10.235 22.86 22.86s-10.235 22.86-22.86 22.86-22.86-10.235-22.86-22.86 10.235-22.86 22.86-22.86Z"/></symbol><symbol viewBox="0 0 256 296" id="astroicon:logos/preact-logomark"><path fill="#673AB8" d="m128 0 128 73.9v147.8l-128 73.9L0 221.7V73.9z"/><path fill="#FFF" d="M34.865 220.478c17.016 21.78 71.095 5.185 122.15-34.704 51.055-39.888 80.24-88.345 63.224-110.126-17.017-21.78-71.095-5.184-122.15 34.704-51.055 39.89-80.24 88.346-63.224 110.126Zm7.27-5.68c-5.644-7.222-3.178-21.402 7.573-39.253 11.322-18.797 30.541-39.548 54.06-57.923 23.52-18.375 48.303-32.004 69.281-38.442 19.922-6.113 34.277-5.075 39.92 2.148 5.644 7.223 3.178 21.403-7.573 39.254-11.322 18.797-30.541 39.547-54.06 57.923-23.52 18.375-48.304 32.004-69.281 38.441-19.922 6.114-34.277 5.076-39.92-2.147Z"/><path fill="#FFF" d="M220.239 220.478c17.017-21.78-12.169-70.237-63.224-110.126C105.96 70.464 51.88 53.868 34.865 75.648c-17.017 21.78 12.169 70.238 63.224 110.126 51.055 39.889 105.133 56.485 122.15 34.704Zm-7.27-5.68c-5.643 7.224-19.998 8.262-39.92 2.148-20.978-6.437-45.761-20.066-69.28-38.441-23.52-18.376-42.74-39.126-54.06-57.923-10.752-17.851-13.218-32.03-7.575-39.254 5.644-7.223 19.999-8.261 39.92-2.148 20.978 6.438 45.762 20.067 69.281 38.442 23.52 18.375 42.739 39.126 54.06 57.923 10.752 17.85 13.218 32.03 7.574 39.254Z"/><path fill="#FFF" d="M127.552 167.667c10.827 0 19.603-8.777 19.603-19.604 0-10.826-8.776-19.603-19.603-19.603-10.827 0-19.604 8.777-19.604 19.603 0 10.827 8.777 19.604 19.604 19.604Z"/></symbol><symbol viewBox="0 0 256 308" id="astroicon:logos/svelte-logomark"><path fill="#FF3E00" d="M240 41a94 94 0 0 0-126-27L42 59a82 82 0 0 0-37 55 87 87 0 0 0 9 56 82 82 0 0 0-13 31 88 88 0 0 0 15 66c29 41 85 53 126 27l72-46a82 82 0 0 0 37-55 87 87 0 0 0-9-55 82 82 0 0 0 13-31 88 88 0 0 0-15-66"/><path fill="#FFF" d="M107 271c-23 6-48-3-61-23a53 53 0 0 1-9-40 50 50 0 0 1 1-6l2-4 4 2a92 92 0 0 0 28 14l2 1v3a16 16 0 0 0 3 10 17 17 0 0 0 18 7 16 16 0 0 0 5-2l71-45a15 15 0 0 0 7-10 16 16 0 0 0-3-12 17 17 0 0 0-18-7 16 16 0 0 0-4 2l-28 17a52 52 0 0 1-14 7c-23 6-48-4-61-23a53 53 0 0 1-9-40 49 49 0 0 1 22-33l72-46a52 52 0 0 1 14-6c23-6 48 3 61 22a53 53 0 0 1 9 40 51 51 0 0 1-1 7l-2 4-4-3a92 92 0 0 0-28-14h-2v-3a16 16 0 0 0-3-11 17 17 0 0 0-18-7 16 16 0 0 0-5 2l-71 46a15 15 0 0 0-7 10 16 16 0 0 0 3 12 17 17 0 0 0 18 7 16 16 0 0 0 4-2l28-17a52 52 0 0 1 14-7c23-6 48 3 61 23a53 53 0 0 1 9 40 49 49 0 0 1-22 33l-72 45a52 52 0 0 1-14 7"/></symbol><symbol viewBox="0 0 256 221" id="astroicon:logos/vue-logomark"><path fill="#41B883" d="M205 0h51L128 221 0 0h98l30 51 29-51h48Z"/><path fill="#41B883" d="m0 0 128 221L256 0h-51l-77 132L51 0H0Z"/><path fill="#35495E" d="m51 0 77 133L205 0h-48l-29 51L98 0H51Z"/></symbol><symbol viewBox="0 0 256 320" id="astroicon:logos/lit-logomark"><path fill="#00E8FF" d="m64 192 26-45 38-19 64 64 11 62-11 66-64-64-38-26z"/><path fill="#283198" d="M128 256V128l64-64v128l-64 64ZM0 256l64 64 9-61-9-67-37 24-27 40Z"/><path fill="#324FFF" d="M64 192V64l64-64v128l-64 64Zm128 128V192l64-64v128l-64 64ZM0 256V128l64 64-64 64Z"/><path fill="#0FF" d="M64 320V192l64 64z"/></symbol><symbol viewBox="0 0 256 239" id="astroicon:logos/solid-logomark"><defs><linearGradient id="astroicon:logos/solid-logomarka" x1="-5.9%" x2="91.4%" y1="38.3%" y2="60.9%"><stop offset="10%" stop-color="#76B3E1"/><stop offset="30%" stop-color="#DCF2FD"/><stop offset="100%" stop-color="#76B3E1"/></linearGradient><linearGradient id="astroicon:logos/solid-logomarkb" x1="57%" x2="37.9%" y1="38.4%" y2="68.4%"><stop offset="0%" stop-color="#76B3E1"/><stop offset="50%" stop-color="#4377BB"/><stop offset="100%" stop-color="#1F3B77"/></linearGradient><linearGradient id="astroicon:logos/solid-logomarkc" x1="10.7%" x2="104.3%" y1="34.5%" y2="70.5%"><stop offset="0%" stop-color="#315AA9"/><stop offset="50%" stop-color="#518AC8"/><stop offset="100%" stop-color="#315AA9"/></linearGradient><linearGradient id="astroicon:logos/solid-logomarkd" x1="62%" x2="17.8%" y1="29.6%" y2="105.1%"><stop offset="0%" stop-color="#4377BB"/><stop offset="50%" stop-color="#1A336B"/><stop offset="100%" stop-color="#1A336B"/></linearGradient></defs><path fill="#76B3E1" d="M256 50S171-12 105 2l-5 2c-10 3-18 8-23 14l-3 5-24 42 42 8c17 11 40 16 61 11l74 15 29-49Z"/><path fill="url(#astroicon:logos/solid-logomarka)" d="M256 50S171-12 105 2l-5 2c-10 3-18 8-23 14l-3 5-24 42 42 8c17 11 40 16 61 11l74 15 29-49Z" opacity=".3"/><path fill="#518AC8" d="m77 50-6 2c-28 8-36 34-21 56 16 21 50 33 77 25l100-34S142 36 77 50Z"/><path fill="url(#astroicon:logos/solid-logomarkb)" d="m77 50-6 2c-28 8-36 34-21 56 16 21 50 33 77 25l100-34S142 36 77 50Z" opacity=".3"/><path fill="url(#astroicon:logos/solid-logomarkc)" d="M209 123a72 72 0 0 0-77-24L32 131 0 187l180 31 33-58c6-11 4-24-4-37Z"/><path fill="url(#astroicon:logos/solid-logomarkd)" d="M177 179a72 72 0 0 0-77-24L0 187s85 65 151 49l5-2c28-8 37-34 21-55Z"/></symbol><symbol viewBox="0 0 256 154" id="astroicon:logos/tailwind-logomark"><defs><linearGradient id="astroicon:logos/tailwind-logomarka" x1="-2.8%" x2="100%" y1="32%" y2="67.6%"><stop offset="0%" stop-color="#2298BD"/><stop offset="100%" stop-color="#0ED7B5"/></linearGradient></defs><path fill="url(#astroicon:logos/tailwind-logomarka)" d="M128 0C94 0 73 17 64 51c13-17 28-23 45-19 10 2 16 9 24 17 13 13 27 28 59 28 34 0 55-17 64-51-13 17-28 23-45 19-10-3-16-10-24-18-13-12-27-27-59-27ZM64 77C30 77 9 94 0 128c13-17 28-23 45-19 10 2 16 9 24 17 13 13 27 28 59 28 34 0 55-17 64-52-13 17-28 24-45 20-10-3-16-10-24-18-13-12-27-27-59-27Z"/></symbol><symbol viewBox="0 0 45.116 22.806" id="astroicon:logos/alpinejs-logomark"><g opacity=".8"><path fill="#d8dee9" d="M33.71 0 11.207 22.693l.113.113h22.586l11.21-11.304z"/><path fill="#8ac0cf" d="m11.405 0 22.578 22.769-.039.037H11.209L0 11.502z"/></g></symbol><symbol viewBox="0 0 209.51 94.74" id="astroicon:logos/cloudflare-logomark"><path fill="#f4801f" d="m143.05 93.42 1.07-3.71c1.27-4.41.8-8.48-1.34-11.48-2-2.76-5.26-4.38-9.25-4.57L58 72.7a1.47 1.47 0 0 1-1.35-2 2 2 0 0 1 1.75-1.34l76.26-1c9-.41 18.84-7.75 22.27-16.71l4.34-11.36a2.68 2.68 0 0 0 .18-1 3.31 3.31 0 0 0-.06-.54 49.67 49.67 0 0 0-95.49-5.14 22.35 22.35 0 0 0-35 23.42A31.73 31.73 0 0 0 .34 93.45a1.47 1.47 0 0 0 1.45 1.27h139.49a1.83 1.83 0 0 0 1.77-1.3z"/><path fill="#f9ab41" d="M168.22 41.15q-1 0-2.1.06a.88.88 0 0 0-.32.07 1.17 1.17 0 0 0-.76.8l-3 10.26c-1.28 4.41-.81 8.48 1.34 11.48a11.65 11.65 0 0 0 9.24 4.57l16.11 1a1.44 1.44 0 0 1 1.14.62 1.5 1.5 0 0 1 .17 1.37 2 2 0 0 1-1.75 1.34l-16.73 1c-9.09.42-18.88 7.75-22.31 16.7l-1.21 3.16a.9.9 0 0 0 .79 1.22h57.63a1.55 1.55 0 0 0 1.54-1.17 41.34 41.34 0 0 0-39.76-52.48z"/></symbol><symbol fill="none" viewBox="0 0 128 113" id="astroicon:logos/netlify-logomark"><g clip-path="url(#astroicon:logos/netlify-logomarka)"><path fill="#05BDBA" d="M34.593 94.05h-1.209l-6.033-6.032v-1.209l9.223-9.222h6.39l.852.852v6.39l-9.223 9.222Zm-7.242-68.234v-1.209l6.033-6.033h1.209l9.223 9.223v6.39l-.852.852h-6.39l-9.223-9.223Z"/><path fill="#014847" d="M80.46 74.605h-8.778l-.733-.733V53.326c0-3.656-1.436-6.489-5.844-6.588-2.269-.06-4.865 0-7.638.11l-.416.425v26.589l-.733.733H47.54l-.733-.733V38.764l.733-.733h19.753c7.677 0 13.898 6.22 13.898 13.898v21.943l-.733.733Z"/><path fill="#05BDBA" d="M35.841 61.45H.733L0 60.715v-8.797l.733-.733h35.108l.733.733v8.797l-.733.733Zm91.436 0H92.169l-.733-.734v-8.797l.733-.733h35.108l.733.733v8.797l-.733.733ZM58.943 27.064V.734L59.676 0h8.797l.733.733v26.331l-.733.733h-8.797l-.733-.733Zm0 84.838v-26.33l.733-.734h8.797l.733.733v26.331l-.733.733h-8.797l-.733-.733Z"/></g><defs><clipPath id="astroicon:logos/netlify-logomarka"><path fill="#fff" d="M0 0h128v112.635H0z"/></clipPath></defs></symbol><symbol fill="none" viewBox="0 0 76 65" id="astroicon:logos/vercel-logomark"><path fill="#000" d="m37.527 0 37.528 65H0L37.527 0Z"/></symbol><symbol aria-hidden="true" class="iconify iconify--logos" viewBox="0 0 256 289" id="astroicon:logos/node-logomark"><path fill="#539E43" d="M128 289c-4 0-8-2-11-3l-35-21c-6-3-3-4-1-5l16-7h2l27 16h3l106-61c1 0 2-1 2-3V83l-2-3-106-61h-3L20 80l-1 3v122l1 3 29 17c16 8 26-1 26-11V94c0-2 1-3 3-3h13c2 0 4 1 4 3v120c0 21-12 33-32 33-6 0-11 0-24-6l-28-16a22 22 0 0 1-11-19V83c0-8 4-15 11-19L117 3a24 24 0 0 1 22 0l106 61c7 4 11 11 11 19v123c0 8-4 15-11 19l-106 61a27 27 0 0 1-11 2Zm33-84c-47 0-56-22-56-40 0-1 1-3 3-3h14c1 0 3 1 3 3 2 14 8 21 36 21 22 0 32-5 32-17 0-7-3-12-38-16-29-3-47-9-47-32 0-22 18-34 49-34 34 0 50 11 52 37v2l-3 1h-13c-2 0-3-1-3-2-3-15-12-19-33-19-25 0-28 8-28 14 0 8 4 10 37 15 32 4 48 10 48 33-1 23-20 36-53 36Z"/></symbol><symbol viewBox="0 0 5120 5120" id="astroicon:logos/deno-logomark"><path d="M2560 0a2560 2560 0 1 1 0 5120 2560 2560 0 0 1 0-5120z"/><path fill="#fff" d="M2460 1449c-744 0-1324 469-1324 1052 0 550 533 901 1359 884l25-1 91-3-23 60 3 6a668 668 0 0 1 18 47l2 6 3 10 4 14 3 9 4 10 3 11 4 16 5 17 3 11 5 18 5 19 4 19 5 20 4 14 5 22 5 22 7 30 3 16 5 24 5 25 6 26 7 37 6 30 8 42 4 21 7 33 6 34 8 46 9 48 8 50 9 51 9 52 9 54 9 56 7 43 11 73 5 30 12 77 9 63 8 48 9 66 5 33c549-73 1037-339 1393-728l11-12-51-190-135-505-84-314-74-276-46-168-29-106-17-64-16-56-6-24-4-13-2-7-2-6c-78-251-229-473-435-634-242-189-549-288-907-288zm-654 2669c-65-18-133 20-152 85l-1 3-112 416a2287 2287 0 0 0 215 93l17 7 121-451 1-3c16-66-23-133-89-150zm697-305c-66-18-134 20-153 85l-1 3-170 630v3a125 125 0 0 0 241 65l1-3 170-630v-3l3-14 1-5-4-21-6-29-4-18a125 125 0 0 0-78-63zm-1185-649-8 19-1 4-170 630-1 3a125 125 0 0 0 241 66l1-3 154-572c-80-42-153-92-216-147zm-405-725c-66-17-134 21-153 85l-1 3-170 630v3a125 125 0 0 0 241 66l1-3 170-630v-3c16-66-23-133-88-151zm3811-143c-65-17-133 21-152 85l-1 3-170 630-1 3a125 125 0 0 0 242 66v-3l171-630v-4c16-65-23-132-89-150zM542 1455a2284 2284 0 0 0-267 838 124 124 0 0 0 62 38c65 17 133-21 152-85l1-3 170-630 1-3c16-66-23-133-89-151a127 127 0 0 0-30-4zm3752 4c-66-17-133 21-153 85v3l-170 630-1 3a125 125 0 0 0 241 66l1-3 170-630 1-3c16-66-24-133-89-151z"/><path d="M2620 1870a160 160 0 1 1 0 320 160 160 0 0 1 0-320z"/><path fill="#fff" d="M1282 860c-65-17-133 21-152 85l-1 3-170 630-1 3a125 125 0 0 0 241 66l1-3 170-630 1-4c16-65-23-132-89-150zm2185 119c-66-17-134 21-153 85l-1 3-114 424a1399 1399 0 0 1 211 128l11 9 134-495v-3c16-66-23-133-88-151zM2355 269a2299 2299 0 0 0-238 34l-17 3-158 587-1 3a125 125 0 0 0 241 65l1-3 170-630 1-3a124 124 0 0 0 1-56zm1564 435-33 124-1 3a125 125 0 0 0 241 65l1-3 4-13a2312 2312 0 0 0-197-165zm-989-414-60 223-1 3a125 125 0 0 0 241 65l1-3 63-235a2286 2286 0 0 0-226-50z"/></symbol>
</svg>