<svg xmlns="http://www.w3.org/2000/svg" fill="none" viewBox="0 0 363 80" aria-label="CloudCannon CMS Logo" class="w-32" astro-icon="sponsors/cloudcannon"><path fill="#fff" fill-rule="evenodd" d="M29.07 42.884c.355.202.735.405 1.115.582 2.836 1.317 4.153 2.178 4.153 4.001a3.556 3.556 0 0 1-3.546 3.545c-1.519 0-2.785-.962-3.292-2.304-1.848 1.874-4.38 3.039-7.216 3.039a10.126 10.126 0 0 1-10.13-10.13c0-.531.076-1.063.152-1.595-5.19-1.519-9.192-5.85-10.103-11.268A14.85 14.85 0 0 1 0 26.374c0-.81.076-1.596.203-2.38.937-5.395 4.912-9.75 10.103-11.27l-.01-.066c-.072-.508-.142-.995-.142-1.529C10.154 5.533 14.687 1 20.284 1c2.81 0 5.368 1.165 7.216 3.039.507-1.342 1.773-2.305 3.293-2.305a3.556 3.556 0 0 1 3.545 3.546c0 1.975-1.317 2.836-4.153 4.152-.281.132-.548.277-.822.425l-.293.158c-.227.127-.455.253-.658.38-.177.101-.33.202-.481.304-.05.025-.095.057-.14.088a1.04 1.04 0 0 1-.139.089c-.86.557-1.646 1.215-2.405 1.9-.026.012-.044.03-.064.05a.25.25 0 0 1-.063.05 29.476 29.476 0 0 0-1 1.039c-.038.044-.076.088-.114.126-.12.15-.243.295-.366.44-.19.223-.377.444-.546.674-2.355 3.14-3.798 7.066-3.798 11.294 0 4.23 1.418 8.154 3.798 11.294.279.38.583.76.912 1.114.038.038.076.083.114.127.038.044.076.089.114.127.208.246.431.464.657.686l.23.225c.024.013.044.032.063.051.018.019.037.038.063.05.76.684 1.544 1.343 2.405 1.9.051.025.095.057.14.088.044.032.088.064.139.09.076.05.158.1.24.151.083.05.165.101.241.152.114.063.222.127.33.19.107.063.215.127.328.19Zm35.2-30.058c5.19 1.52 9.191 5.85 10.103 11.269.127.76.203 1.57.203 2.532 0 .81-.076 1.595-.203 2.38-.937 5.394-4.913 9.75-10.104 11.269l.01.066c.073.508.142.995.142 1.53C64.421 47.467 59.888 52 54.292 52c-2.81 0-5.368-1.165-7.217-3.038-.506 1.342-1.773 2.304-3.292 2.304a3.556 3.556 0 0 1-3.545-3.545c0-1.975 1.317-2.836 4.153-4.153.28-.131.548-.276.822-.425l.292-.158c.228-.126.456-.253.658-.38.178-.1.33-.202.482-.303a1.03 1.03 0 0 0 .139-.089c.044-.032.089-.063.14-.089.86-.557 1.645-1.215 2.405-1.899.025-.013.044-.032.063-.05.02-.02.038-.038.063-.051.304-.304.608-.608.887-.912.038-.038.076-.082.114-.126.038-.045.076-.089.114-.127.12-.15.243-.295.366-.44.189-.223.376-.444.545-.674 2.355-3.14 3.799-7.065 3.799-11.294s-1.418-8.154-3.799-11.294c-.278-.38-.582-.76-.911-1.114a2.262 2.262 0 0 1-.114-.127 2.335 2.335 0 0 0-.114-.127 10.11 10.11 0 0 0-.886-.911.247.247 0 0 1-.064-.05c-.019-.02-.038-.039-.063-.051a22.036 22.036 0 0 0-2.406-1.9c-.05-.025-.095-.057-.14-.088a1.04 1.04 0 0 0-.138-.089 7.89 7.89 0 0 0-.24-.152 8.023 8.023 0 0 1-.242-.152 15.293 15.293 0 0 1-.329-.19 14.655 14.655 0 0 0-.329-.19 15.42 15.42 0 0 0-1.114-.582c-2.81-1.342-4.153-2.203-4.153-4.153a3.556 3.556 0 0 1 3.545-3.545c1.52 0 2.786.962 3.292 2.304 1.849-1.874 4.381-3.038 7.217-3.038 5.596 0 10.13 4.532 10.13 10.129 0 .531-.077 1.063-.153 1.595Z" clip-rule="evenodd"/><path fill="#fff" d="M48.34 26.475c0-6.103-4.938-11.04-11.04-11.04a11.034 11.034 0 0 0-11.041 11.04c0 6.103 4.938 11.04 11.04 11.04 6.104 0 11.041-4.937 11.041-11.04Z"/><path fill="#fff" fill-rule="evenodd" d="M119.934 36.264V.833h-6.509v35.43h6.509Zm-21.442.733c3.002 0 5.481-.799 7.439-2.398 1.957-1.598 3.23-3.507 3.817-5.725l-5.726-1.909c-.326 1.11-.946 2.064-1.86 2.863-.913.8-2.136 1.199-3.67 1.199-1.729 0-3.189-.612-4.38-1.835-1.19-1.224-1.786-2.88-1.786-4.967 0-2.088.587-3.736 1.762-4.943 1.174-1.207 2.626-1.81 4.355-1.81 2.773 0 4.551 1.353 5.334 4.061l5.824-1.957c-.555-2.252-1.811-4.168-3.768-5.75-1.958-1.583-4.47-2.374-7.537-2.374-3.523 0-6.484 1.207-8.882 3.621-2.398 2.415-3.597 5.465-3.597 9.152 0 3.654 1.216 6.696 3.646 9.126 2.43 2.431 5.44 3.646 9.03 3.646Zm46.605-3.621c-2.398 2.414-5.408 3.621-9.029 3.621-3.622 0-6.631-1.207-9.029-3.621-2.398-2.414-3.597-5.465-3.597-9.151 0-3.687 1.191-6.738 3.572-9.152 2.415-2.414 5.432-3.621 9.054-3.621 3.621 0 6.631 1.207 9.029 3.621 2.398 2.415 3.597 5.465 3.597 9.152 0 3.686-1.199 6.737-3.597 9.15Zm-9.028-2.3c-1.696 0-3.148-.604-4.355-1.81-1.175-1.208-1.762-2.888-1.762-5.041 0-2.154.595-3.834 1.786-5.041 1.191-1.207 2.635-1.81 4.331-1.81 1.697 0 3.14.603 4.331 1.81 1.191 1.207 1.786 2.887 1.786 5.04 0 2.154-.595 3.834-1.786 5.041-1.191 1.207-2.634 1.81-4.331 1.81Zm28.832 5.016a9.556 9.556 0 0 1-3.891.807c-2.838 0-5.073-.905-6.704-2.716-1.631-1.81-2.447-4.07-2.447-6.777v-15.22h6.509v13.898c0 1.436.375 2.602 1.125 3.5.751.896 1.844 1.345 3.279 1.345 1.403 0 2.512-.432 3.328-1.297.815-.864 1.223-2.015 1.223-3.45V12.186h6.509v19.722c0 1.533.082 2.985.245 4.355h-6.215c-.131-.652-.196-1.517-.196-2.593-.62 1.076-1.542 1.884-2.765 2.422Zm24.599.759c1.566 0 2.944-.31 4.135-.93 1.191-.62 2.063-1.436 2.618-2.447 0 1.044.082 1.974.245 2.79h6.215a43.9 43.9 0 0 1-.196-4.356V.833h-6.411v13.751c-1.076-1.99-3.344-2.985-6.802-2.985-3.361 0-6.126 1.207-8.295 3.621-2.17 2.414-3.254 5.4-3.254 8.956 0 3.654 1.101 6.68 3.303 9.078 2.202 2.398 5.016 3.597 8.442 3.597Zm-3.523-7.66c1.109 1.224 2.545 1.836 4.306 1.836 1.73 0 3.149-.62 4.258-1.86 1.109-1.24 1.664-2.92 1.664-5.04 0-2.088-.555-3.728-1.664-4.918-1.109-1.191-2.528-1.787-4.258-1.787-1.729 0-3.156.604-4.282 1.811-1.125 1.207-1.688 2.855-1.688 4.943 0 2.12.555 3.793 1.664 5.016Zm32.821 7.806c3.002 0 5.481-.799 7.439-2.398 1.957-1.598 3.229-3.507 3.817-5.725l-5.726-1.909c-.326 1.11-.946 2.064-1.86 2.863-.913.8-2.137 1.199-3.67 1.199-1.729 0-3.189-.612-4.38-1.835-1.191-1.224-1.786-2.88-1.786-4.967 0-2.088.587-3.736 1.762-4.943 1.174-1.207 2.626-1.81 4.355-1.81 2.773 0 4.551 1.353 5.334 4.061l5.824-1.957c-.555-2.252-1.811-4.168-3.768-5.75-1.958-1.583-4.47-2.374-7.537-2.374-3.523 0-6.484 1.207-8.882 3.621-2.398 2.415-3.597 5.465-3.597 9.152 0 3.654 1.215 6.696 3.646 9.126 2.431 2.431 5.44 3.646 9.029 3.646Zm29.764-3.621c-1.534 2.382-3.899 3.572-7.096 3.572-2.48 0-4.478-.717-5.995-2.153-1.517-1.436-2.276-3.132-2.276-5.09 0-2.055.669-3.702 2.007-4.942 1.337-1.24 3.066-2.023 5.187-2.35l5.922-.88c1.207-.163 1.81-.734 1.81-1.713 0-.913-.351-1.664-1.052-2.251-.701-.587-1.705-.88-3.01-.88-1.37 0-2.455.374-3.254 1.125-.799.75-1.248 1.68-1.346 2.79l-5.774-1.224c.228-2.088 1.256-3.932 3.083-5.53 1.827-1.599 4.241-2.398 7.242-2.398 3.589 0 6.232.856 7.928 2.569 1.697 1.713 2.545 3.907 2.545 6.582v11.843c0 1.436.098 2.708.294 3.817h-5.971c-.163-.718-.244-1.68-.244-2.887Zm-5.726-1.272c-.979 0-1.746-.27-2.3-.808a2.653 2.653 0 0 1-.832-1.982c0-1.729.995-2.74 2.985-3.034l5.432-.832v1.077c0 1.99-.497 3.417-1.492 4.282-.996.864-2.26 1.297-3.793 1.297Zm23.082-9.69v13.85h-6.508V12.186h6.313v2.986c.685-1.175 1.663-2.072 2.936-2.692a9.048 9.048 0 0 1 4.013-.93c2.838 0 5 .89 6.484 2.667 1.484 1.778 2.227 4.07 2.227 6.876v15.17h-6.509V22.22c0-1.436-.367-2.594-1.101-3.475-.734-.881-1.852-1.321-3.352-1.321-1.371 0-2.464.473-3.279 1.419-.816.946-1.224 2.137-1.224 3.572Zm26.948 13.85v-13.85c0-1.435.408-2.626 1.224-3.572.815-.946 1.908-1.42 3.278-1.42 1.501 0 2.619.441 3.353 1.322.734.88 1.101 2.039 1.101 3.474v14.046h6.508V21.093c0-2.806-.742-5.098-2.226-6.876-1.485-1.778-3.646-2.667-6.485-2.667-1.402 0-2.74.31-4.012.93-1.273.62-2.252 1.517-2.937 2.691v-2.985h-6.313v24.078h6.509Zm40.283-2.888c-2.398 2.414-5.407 3.621-9.029 3.621-3.621 0-6.631-1.207-9.029-3.621-2.398-2.414-3.597-5.465-3.597-9.151 0-3.687 1.191-6.738 3.573-9.152 2.414-2.414 5.432-3.621 9.053-3.621 3.622 0 6.631 1.207 9.029 3.621 2.398 2.414 3.597 5.465 3.597 9.151 0 3.687-1.199 6.738-3.597 9.152Zm-9.028-2.3c-1.696 0-3.148-.604-4.355-1.811-1.175-1.207-1.762-2.887-1.762-5.04 0-2.154.596-3.834 1.786-5.041 1.191-1.207 2.635-1.81 4.331-1.81 1.697 0 3.141.603 4.331 1.81 1.191 1.207 1.787 2.887 1.787 5.04 0 2.154-.596 3.834-1.787 5.041-1.19 1.207-2.634 1.81-4.331 1.81Zm22.641-8.662v13.85h-6.508V12.186h6.313v2.986c.685-1.175 1.663-2.072 2.936-2.692a9.048 9.048 0 0 1 4.013-.93c2.838 0 4.999.89 6.484 2.667 1.484 1.778 2.227 4.07 2.227 6.876v15.17h-6.509V22.22c0-1.436-.367-2.594-1.101-3.475-.734-.881-1.852-1.321-3.352-1.321-1.371 0-2.464.473-3.279 1.419-.816.946-1.224 2.137-1.224 3.572Z" clip-rule="evenodd"/><path fill="#FDFDFD" d="M313.211 64.264c5.013 0 7.651-3.693 7.651-3.693l-1.847-1.847s-1.978 2.902-5.804 2.902a6.811 6.811 0 0 1-6.858-6.859 6.811 6.811 0 0 1 6.858-6.859c3.826 0 5.672 2.77 5.672 2.77l1.847-1.846s-2.506-3.562-7.519-3.562c-5.539 0-9.76 4.221-9.76 9.497s4.221 9.497 9.76 9.497ZM324.294 64h2.902V50.414l6.727 8.574 6.727-8.574V64h2.902V45.534h-2.638l-6.991 8.97-6.991-8.97h-2.638V64Zm29.274.264c4.089 0 6.595-2.506 6.595-5.408 0-6.859-9.761-4.353-9.761-8.442 0-1.319 1.187-2.506 3.43-2.506 2.506 0 3.825 1.715 3.825 1.715l1.978-1.979s-1.978-2.374-5.803-2.374c-3.957 0-6.332 2.374-6.332 5.144 0 6.86 9.761 4.353 9.761 8.442 0 1.45-1.319 2.77-3.693 2.77-3.166 0-4.617-2.11-4.617-2.11l-1.978 1.978s2.11 2.77 6.595 2.77Z"/></svg>